<svg xmlns="http://www.w3.org/2000/svg" width="195" height="32" fill="none"><path fill="#0052CC" d="M121.21 17.946c0-3.403-1.826-5.015-6.913-6.125-2.83-.61-3.51-1.254-3.51-2.15 0-1.11 1.003-1.611 2.865-1.611 2.257 0 4.478.68 6.591 1.647V5.23c-1.468-.752-3.761-1.326-6.447-1.326-5.051 0-7.666 2.186-7.666 5.803 0 2.866 1.325 5.159 6.555 6.162 3.116.644 3.761 1.146 3.761 2.185 0 1.003-.645 1.648-2.865 1.648-2.544 0-5.588-.86-7.559-2.042v4.692c1.577.788 3.654 1.648 7.523 1.648 5.516 0 7.665-2.436 7.665-6.054ZM176.339 4.191v19.522h4.155V8.812l1.755 3.976 5.875 10.925h5.23V4.191h-4.156V16.8l-1.576-3.654-4.728-8.955h-6.555ZM149.903 4.191h-4.549v19.487h4.549V4.19ZM140.124 17.946c0-3.403-1.827-5.015-6.914-6.125-2.829-.61-3.51-1.254-3.51-2.15 0-1.11 1.003-1.611 2.866-1.611 2.256 0 4.477.68 6.591 1.647V5.23c-1.469-.752-3.761-1.326-6.448-1.326-5.051 0-7.666 2.186-7.666 5.803 0 2.866 1.326 5.159 6.555 6.162 3.117.644 3.762 1.146 3.762 2.185 0 1.003-.645 1.648-2.866 1.648-2.543 0-5.588-.86-7.558-2.042v4.692c1.576.788 3.654 1.648 7.522 1.648 5.517 0 7.666-2.436 7.666-6.054ZM70.882 4.191v19.522h9.35l1.468-4.226h-6.233V4.19h-4.585ZM52.47 4.191v4.227h5.015v15.295h4.585V8.418h5.41V4.19H52.47ZM45.843 4.191h-5.982l-6.806 19.487h5.194l.967-3.296c1.147.322 2.365.537 3.654.537 1.254 0 2.472-.179 3.654-.537l.967 3.296h5.194L45.843 4.19Zm-3.009 12.716a9.63 9.63 0 0 1-2.507-.358l2.507-8.525 2.508 8.525a9.632 9.632 0 0 1-2.508.358ZM96.315 4.191h-5.982l-6.806 19.487h5.194l.967-3.296c1.146.322 2.364.537 3.654.537 1.254 0 2.471-.179 3.654-.537l.967 3.296h5.194L96.315 4.19Zm-2.973 12.716c-.86 0-1.72-.143-2.508-.358l2.508-8.525 2.507 8.525c-.824.215-1.648.358-2.507.358ZM166.273 4.191h-5.982l-6.806 19.487h5.194l.967-3.296c1.147.322 2.364.537 3.654.537 1.254 0 2.472-.179 3.654-.537l.967 3.296h5.194L166.273 4.19Zm-3.009 12.716c-.86 0-1.719-.143-2.507-.358l2.507-8.525 2.508 8.525a9.417 9.417 0 0 1-2.508.358Z"/><path fill="#0052CC" d="M140.124 17.946c0-3.403-1.791-5.015-6.914-6.125-2.829-.61-3.51-1.254-3.51-2.15 0-1.11 1.003-1.611 2.866-1.611 2.256 0 4.477.68 6.591 1.647V5.23c-2.006-.932-4.227-1.361-6.448-1.326-5.051 0-7.666 2.186-7.666 5.803 0 2.866 1.326 5.159 6.555 6.162 3.117.644 3.762 1.146 3.762 2.185 0 1.039-.645 1.648-2.866 1.648a15.913 15.913 0 0 1-7.558-2.042v4.692c1.576.788 3.654 1.648 7.522 1.648 5.481 0 7.63-2.436 7.666-6.054ZM6.834 11.069c-.107-.144-.322-.215-.501-.215a.57.57 0 0 0-.358.286L.065 22.961a.484.484 0 0 0 .214.68.51.51 0 0 0 .215.072h8.239c.179 0 .394-.107.466-.286 1.755-3.582.68-9.134-2.365-12.358ZM23.706 22.961C23.563 22.746 12.637.824 12.351.287 12.279.107 12.136 0 11.957 0h-.036a.56.56 0 0 0-.466.287C8.482 4.979 8.16 10.675 10.56 15.475l3.976 7.916c.072.18.25.287.466.287h8.238a.49.49 0 0 0 .502-.502c0-.071 0-.143-.036-.215Z"/></svg>
