<svg xmlns="http://www.w3.org/2000/svg" width="158" height="33" fill="none"><linearGradient id="a" x1="16.753" x2="16.753" y1="31.773" y2=".308" gradientUnits="userSpaceOnUse"><stop offset="0" stop-color="#0052cc"/><stop offset="1" stop-color="#2684ff"/></linearGradient><path fill="url(#a)" fill-rule="evenodd" d="M28.743.308H4.738A3.743 3.743 0 0 0 .995 4.045v23.97a3.742 3.742 0 0 0 3.743 3.758h24.005a3.744 3.744 0 0 0 3.737-3.758V4.045A3.743 3.743 0 0 0 28.743.308zM14.573 22.97a1.251 1.251 0 0 1-1.26 1.246H8.067a1.245 1.245 0 0 1-1.241-1.246V7.359a1.246 1.246 0 0 1 1.24-1.245h5.247a1.251 1.251 0 0 1 1.245 1.245zm12.106-7.168a1.247 1.247 0 0 1-1.26 1.246h-5.246a1.25 1.25 0 0 1-1.246-1.246V7.36a1.25 1.25 0 0 1 1.246-1.245h5.245a1.246 1.246 0 0 1 1.241 1.245z" clip-rule="evenodd"/><g fill="#293856"><path d="M66.236 2.613v6.083h-7.208v23.077h-6.951V8.696h-7.208V2.613zM75.083 31.773h-6.426V9.074h6.426v4.349c1.22-3.062 3.173-4.883 6.648-4.661v6.724c-4.54-.353-6.648.756-6.648 4.393zM116.838 31.95c-4.211 0-6.86-2.018-6.86-6.79V.308h6.472v23.964c0 1.377.908 1.867 2.018 1.867.32.006.64-.009.958-.046v5.594a9.454 9.454 0 0 1-2.588.263zM130.337 31.95c-4.212 0-6.866-2.018-6.866-6.79V.308h6.472v23.964c0 1.377.913 1.867 2.043 1.867.318.006.637-.009.953-.046v5.594a9.405 9.405 0 0 1-2.602.263zM136.041 20.414c0-7.012 4.036-11.809 10.987-11.809 6.95 0 10.9 4.782 10.9 11.809 0 7.026-3.995 11.894-10.9 11.894-6.906 0-10.987-4.928-10.987-11.894zm6.301 0c0 3.414 1.432 6.123 4.686 6.123 3.253 0 4.605-2.709 4.605-6.123 0-3.415-1.387-6.053-4.605-6.053-3.219 0-4.686 2.633-4.686 6.053zM90.407 22.467c1.8.197 3.607.303 5.418.317 4.923 0 9.079-1.321 9.079-6.088 0-4.625-4.272-8.1-9.412-8.1-6.921 0-11.355 5.018-11.355 12.03 0 7.278 3.824 11.601 12.464 11.601a20.72 20.72 0 0 0 7.506-1.342v-5.437c-2.219.71-4.716 1.417-7.279 1.417-3.44 0-5.836-1.13-6.42-4.398zm4.953-8.918c1.821 0 3.284 1.235 3.284 2.925 0 2.174-2.295 2.855-4.938 2.855a22.535 22.535 0 0 1-3.36-.267c.085-1.06.389-2.09.893-3.027a4.755 4.755 0 0 1 4.121-2.476z"/></g></svg>
